<svg xmlns="http://www.w3.org/2000/svg" xmlns:xlink="http://www.w3.org/1999/xlink" viewBox="0 0 550.66 142.36"><defs><style>.cls-1{fill:#231f20;}.cls-2{fill:#fff;fill-opacity:0.34;}</style><symbol id="Soft_coral" data-name="Soft coral" viewBox="0 0 99.94 100"><path d="M95.63,66.17a13,13,0,0,1,1.95.06c.86.06,1.59.24,1.89.22s.38,0,.46-.34-.39-.67-.73-.87a14.71,14.71,0,0,0-3.81-1.16,3.93,3.93,0,0,0-1.86.92,1.12,1.12,0,0,1-1.17.33,1.63,1.63,0,0,1-.85-1,3.56,3.56,0,0,1,.31-1.64c.14-.42-.1-1.11-.6-.86a3,3,0,0,0-1.13,1.87,16.29,16.29,0,0,0,.25,1.94c0,.57.43.76.09,1s-.63.06-.91-.13a5.12,5.12,0,0,0-2.3-.59,2.26,2.26,0,0,0-1.28.77c-.25.43,1.45.52,2.29.7a11.79,11.79,0,0,1-3.08.34,20.5,20.5,0,0,1-3.43-.42,3.46,3.46,0,0,0,.49-2.5A2,2,0,0,1,82.72,63l.21,0c.82.08,3-3.32,3.42-4.34a19.63,19.63,0,0,1,2.22-3.88,14.69,14.69,0,0,1,2.75-2.08c.72-.42,3.84-2.13,3.67-2.44s-1.32.32-2.35.73c.83-1,2-2.61,1.93-2.85h0c-.15-.29-2.26,1-3.06,1.5.33-1.62.8-3.76.59-3.85S89.74,49,89.56,48.72s.73-3.18.27-3.33S88,49,87.71,48.82s-.38-4.72-.89-4.78-.12,4.34-.5,4.38S84.85,43,84.21,43s.67,5.31,1.13,6.44A6.81,6.81,0,0,1,85.4,53a8,8,0,0,1-1.74,3.42,15.72,15.72,0,0,0-2.82,2.17,11.7,11.7,0,0,0-6.06,0c-1.74.63-3,6.94-4.87,7.1s-1.58-.47-2.68-.16l-.11,0a8.14,8.14,0,0,1,.11-1.79A5.78,5.78,0,0,1,67.81,62c.32-.35,1.56-.13,1.88-1s-1.14-.07-1.22-.4,1.92-2,1.2-2.22-1,1-1.67,1.55-1,.38-1.25,0,1.8-3.79,1.17-4.19-2.11,3.5-2.69,3.79-.72-5.1-1.29-4.81.07,4.41-.28,4.65-.46-.66-.79-1.24S61.26,56,61.09,56.27s1.77,3.9,1.35,4.1-2.86-1.24-3.14-1,2.07,1.86,2.85,2.35,2.16,1.09,2.26,1.71c.07.43.11,2.57.13,3.88A18.15,18.15,0,0,1,60,69.86c-3.31,1.1-7.25,4.57-9.93,3s-7.57-2-7.57-2a20.82,20.82,0,0,0,1.1-2.05c.16-.47,4.42-6.94,4.73-9.62.06-.47.13-.95.21-1.42l.3.17s1-.16,1.27-.7a11.31,11.31,0,0,1,2.41-2.33,8.18,8.18,0,0,1,1.89-1c.53-.09,1.33.7,2.21.27s-.85-.63-.66-.91,3-.43,2.65-1-1.52.18-2.51.27-1.09-.25-.95-.67,4.33-1.82,4.14-2.43-4.36,1.45-5,1.37,3.35-4,2.67-4.13-3.33,3.22-3.79,3.21.14-.72.33-1.3.37-2.35,0-2.25S51.89,50,51.4,49.92s-1.3-2.35-1.74-2.28.2,2.4.44,3.15.87,1.88.48,2.38c-.17.21-.85.88-1.57,1.59a6.44,6.44,0,0,0-.22-3,61.74,61.74,0,0,1-1.29-6.25,6.86,6.86,0,0,0,1.22-.7c-.13.43-.15.76,0,.89.69.47,2.35-3.06,3.31-3.16s1.79,3.21,2.52,3.16-.22-4.18.32-4.42,3.62,2.34,4.1,1.87-4.12-3-3.94-3.61,3.24-.08,3.15-.81-2.29-.56-2.84-.93h0a20,20,0,0,1,2.79-1.36c.67-.26,1.62-.56,2.68-.85,0,0,0,0,0,.07,0,.82,2.5,1.28,4.21,2.59a7.25,7.25,0,0,1,1.35,1.35c-1-.34-2.74-1.87-3.29-1.35s3.33,2.88,2.82,3.29-4.34,1.11-4.19,1.93,4-.44,4.75.19-1.11,3.51-.53,4,3-3.06,3.52-2.84S70.34,49,71,49s-.7-5.07-.15-5.34,2.4,2.28,2.88,1.7-1.24-2-1.36-2.68,3.15-.82,3.27-1.51-3.7-.1-3.8-.84,2.69-2.87,2.35-3.32h0c-.3-.4-3.55,1.82-4.52,1.89l-.46-.48c-.37-1-.73-3-1.34-2.94-.23,0-.35.41-.44.94a11.39,11.39,0,0,1-1.1-2.13v0a13.62,13.62,0,0,1,1.59-.2,5.58,5.58,0,0,0,2.91-.77,1.53,1.53,0,0,0,1.19.42,12.28,12.28,0,0,1,4.05.58,7.84,7.84,0,0,1,2.28,1.1c.41.47.08,2.68,1.08,3.24s.12-2.12.55-2.16,3.05,2.52,3.48,1.68S82,37,81.28,36.07s-.72-1.36-.16-1.56,4.57,3,5.16,2.29S82.33,34.16,82,33.39s6.33.58,6-.19-6-1.24-6.24-1.72S83.13,30.33,83.9,30s2.91-1.58,2.59-1.84-5.17,1.42-5.37.85,2.79-2.85,2.45-3.26-3.47,1.75-4.18,2.62-1.66,2.48-2.46,2.48c-.6,0-3.81-.45-5.38-.68a8.88,8.88,0,0,1-.18-1.37c-.06-1.51,1-2.54,1.22-3.5a1.3,1.3,0,0,0,.91-.4,11.56,11.56,0,0,1,3.26-2,7.37,7.37,0,0,1,2.3-.58c.58.1,1.15,1.44,2.21,1.25s-.67-1.15-.39-1.44,3.26.67,3.07-.2-1.63-.38-2.68-.67-1.06-.77-.77-1.25,5.08-.58,5.08-1.44-5,.1-5.66-.29,4.8-3.84,4.13-4.22-4.51,2.78-5,2.59.38-.86.77-1.53,1.15-2.88.77-2.88-2.88,4.12-3.36,3.84-.57-3.55-1.05-3.65-.58,3.16-.58,4.22.28,2.78-.29,3.26S72.1,22,70.89,22.78l0,0c-1.11-.52-3.79.08-5.27-.37s-1-1.34-1.93-1.85a1.57,1.57,0,0,0-.35-.13c.44-.74.46-3.43.51-4.39a9.75,9.75,0,0,1,2-3.84,6.6,6.6,0,0,1,3.07-2.11c1.2-.22,6.35-2.12,6-2.78s-5.5,1.55-5.66,1.15S73,5.75,72.74,5.27s-4.18,2.23-4.51,2,2.19-3.85,1.82-4.22-2.39,2.35-2.69,2.3S68.8,1.3,68.52,1.05s-1.77,1.62-3,2.94c0-1.11,0-4-.29-4s-1,2.2-1.43,3.67c-.18-1.28-.38-2.82-.59-2.81S63,5.06,63,6a20.11,20.11,0,0,1-.36,4,24.32,24.32,0,0,1-2.15,4.6c-.61,1-2.26,4.92-2,6l-.25.06c-1.34.37-.89,2.75-3,2.82s-6.61,5.72-8.76,6-2,0-2,0l-.66-.25a16,16,0,0,0,0-3.87,10.09,10.09,0,0,1,1.86-1.64,5.79,5.79,0,0,1,1.76-.84c.48,0,1.16,1,2,.72s-.73-.88-.54-1.16,2.73.07,2.44-.64-1.38-.07-2.27-.16-1-.5-.82-.95,4-1.27,3.86-2-4,.85-4.6.62,3.23-4,2.63-4.22-3.18,3.06-3.6,3,.17-.79.37-1.42.46-2.63.15-2.57-1.65,4-2.08,3.78-1-2.93-1.44-2.94,0,2.79.22,3.68.68,2.33.29,2.82c-.19.24-1,1.06-1.82,1.84C41,21.92,40,20.52,38.69,19.86c-.37-.19-.68-.33-1-.45a2.68,2.68,0,0,0-.12-.34A19.25,19.25,0,0,1,36,14.13c0-.28-.08-.58-.13-.87a2.68,2.68,0,0,0,.92-.27c.35-.24-.5-.7-1.15-1.1-.12-.71-.23-1.35-.31-1.79a3.12,3.12,0,0,1,1-.31,4.27,4.27,0,0,0,2.34-.89c.49-.6,1.33-1,1.22-1.34s-2.2.51-2.68.71-.86.47-1.1.12.4-1.09.52-1.5.13-1,.27-1.58-.08-2.44-.7-2.54-.9,2.91-1,3.47a3,3,0,0,1-.47,1,9.06,9.06,0,0,1-.65-1.15c-.11-.32,0-1.79,0-2.22s-.2-.8-.42-.7-.38.72-.44,1.29-.12,2.8-.36,2.94-.69,0-.95-.51a19.78,19.78,0,0,0-1.34-1.85s-.93-.83-1.15-.51,0,1,.16,1.44,1.47,1.93,1.52,2.13,0,.55-.18.64-1.47-.7-1.78-.75a4.22,4.22,0,0,1-.77-.15c-.3-.09-1.5-1-1.77-.79s.23.86.59,1.19A12.25,12.25,0,0,0,29,9.59c.25.08.73.29.54.45a1.32,1.32,0,0,1-1,.3A10.24,10.24,0,0,1,27,9.66c-.68-.33-1.19-.72-1.44-.79S25.23,8.74,25,9s0,.7.14,1a10.1,10.1,0,0,0,2.53,2.22,4.2,4.2,0,0,0,2-.2,1.06,1.06,0,0,1,1.15.09A1.26,1.26,0,0,1,31,13.22a4.55,4.55,0,0,1-1.12,1.32c-.34.31-.5,1,0,.94a3.88,3.88,0,0,0,1.92-1.25c.39-.5.51-1.27.82-1.76a1.16,1.16,0,0,0,.17-.49,11.85,11.85,0,0,1,.8,3.76,18.42,18.42,0,0,1-.42,3.8,3.14,3.14,0,0,0-1.78,3.32,85.2,85.2,0,0,1,0,9c-.16.79-1.6.75-1.6.75h0A11.71,11.71,0,0,1,27.52,32c.49-.2.84-.4.81-.62-.08-.59-2.13-.46-3.15-.59l-.58-.33c-.15-.94,1.3-4.51.84-4.7h0c-.51-.21-2,2.91-2.71,3s-1-3.67-1.66-3.4-.08,3.39-.75,3.43-2.46-1.25-2.91-.67,2.44,1.75,2.3,2.33-5.4.42-5.24,1.07,4.15,0,4.48.51-2.59,3.55-2,4,3-2,3.78-1.42.4,4.48,1.24,4.44.66-3.82.95-4.4,3.39,2.66,3.83,1.91-1.51-2-2-2.8a7.11,7.11,0,0,1,1.62,1C28,36,29,38.3,29.78,38.12h0c.63,0,1.51,1.15,2.61,2.25a5.11,5.11,0,0,1,1.26,4.42c-.23,1,1.81,5.68,2.46,9.34a11.8,11.8,0,0,1-2.7-.13A7,7,0,0,1,31,53a2.62,2.62,0,0,1,.44-.12c.42-.09,2.43.88,2.34.27A2.45,2.45,0,0,0,33,51.92a3.6,3.6,0,0,0-2-.35c-.27.07-.55.11-.75-.23s.2-.35.36-.91a19,19,0,0,0,.76-1.77A3.85,3.85,0,0,0,31,46.41c-.32-.43-.71.14-.72.6a4.49,4.49,0,0,1-.24,1.7,1.23,1.23,0,0,1-1,.61c-.33,0-.76-.45-.83-.78a4.16,4.16,0,0,0-1.2-1.62,10.18,10.18,0,0,0-3.34-.39c-.33.06-.8.19-.83.55s0,.38.27.51.85.25,1.55.53a10.89,10.89,0,0,1,1.55.71,1.32,1.32,0,0,1,.42.9h0c0,.24-.47,0-.69-.11a12.68,12.68,0,0,0-2.18-.45c-.48,0-1.34.05-1.28.36s1.5.61,1.77.77a4.65,4.65,0,0,1,.63.47c.24.2,1.66.59,1.74.81s-.18.45-.36.56-2.16.14-2.6.3-1.08.47-1.18.84,1.15.51,1.15.51A19.79,19.79,0,0,0,26,53.56c.54-.14,1,.09,1,.36S25.41,55.71,25,56.13s-.75,1-.67,1.18.45.09.8-.16,1.35-1.32,1.66-1.46a9.33,9.33,0,0,1,1.29-.29h0a2.85,2.85,0,0,1-.47,1c-.35.46-2.4,2.65-1.91,3s2-.68,2.36-1.17.76-.89,1-1.25.33-1.21.7-1.36l.44.15a3.09,3.09,0,0,1,.28.71c.17.49,1,2.59,1.26,2.45s.06-1,.18-1.79a3,3,0,0,0-.1-.68,11.3,11.3,0,0,1,2.1,1.51,2.35,2.35,0,0,0,1.69.41,17.49,17.49,0,0,1-4,5.69c-1.89,1.73-7.41,3.78-9,4.89s-2.52,3.47-3.47,4.26-1.93.11-3.39,0a2.35,2.35,0,0,0,.07-.31c.16-1.1-2.21-2.37-3.63-4.58a10.62,10.62,0,0,1-1.48-3.65,1.36,1.36,0,0,0,.49.34,21.91,21.91,0,0,0,1.92,1.09,5.58,5.58,0,0,0,2.75.1c.58-.23,0-.72-.54-.82a6.28,6.28,0,0,1-2-.56,1.14,1.14,0,0,1-.5-1.06c0-.33.71-.66,1.12-.66a5.56,5.56,0,0,0,2.21-.86,9,9,0,0,0,1.25-3.2c0-.33,0-.82-.46-.92s-.46,0-.67.16-.5.79-1,1.42a10.31,10.31,0,0,1-1.21,1.39,1.86,1.86,0,0,1-1.17.23c-.29,0,.09-.46.29-.66a11.49,11.49,0,0,0,1-2c.17-.46.25-1.32-.12-1.32S13.08,58.76,12.84,59a4.82,4.82,0,0,1-.71.53c-.29.2-1.09,1.52-1.38,1.55s-.5-.26-.58-.46.34-2.14.26-2.61-.3-1.15-.71-1.32-.87,1-.87,1A16.31,16.31,0,0,0,8.59,60a.79.79,0,0,1-.67.92c-.33,0-1.75-1.88-2.17-2.35s-1-.92-1.24-.89-.21.43,0,.82,1.25,1.58,1.34,1.92a7.75,7.75,0,0,1,0,1.32h0a3.63,3.63,0,0,1-1.12-.66c-.46-.43-2.58-2.87-3.17-2.47s.33,2.11.83,2.54.87.92,1.25,1.22,1.5.6,1.46,1-.58.4-1.21.46-3.29.43-3.21.76,1.21.27,2.09.53a5.91,5.91,0,0,0,3-.43,4.58,4.58,0,0,1,1.19-.23c.19.43.47,1,.78,1.71-.43.67-1,1.5-.51,1.53a3.7,3.7,0,0,0,1.12-.24l.4.81a16.55,16.55,0,0,1,1.42,5,3.41,3.41,0,0,0,1.58,2.21h0c-.79.95.16,2.84-.63,3.94S.69,92.72.06,95.4s4.1,3,5.52,3.47a13.72,13.72,0,0,0,5.52,1.1c2.21-.16,7.73-.79,9.62-1.74s3.81-8.67,8.22-11,6.76-3.47,10.39-3.15c11.83,0,11.71,2.5,15.34,2.35A9.83,9.83,0,0,0,57,86a3.34,3.34,0,0,0,2.31,2.56,15,15,0,0,1,2.72.63c-.59.21-1,.42-1,.66.08.64,2.5.53,3.71.68l.67.36c.17,1-1.6,4.81-1.07,5h0c.59.24,2.37-3.08,3.25-3.15s1.13,3.95,1.9,3.67.16-3.63.94-3.66,2.88,1.38,3.42.76S71,91.64,71.16,91s6.37-.36,6.18-1.06-4.88-.09-5.27-.61,3.12-3.75,2.41-4.22S70.92,87.22,70,86.59s-.39-4.8-1.37-4.76-.84,4.08-1.19,4.68S63.51,83.61,63,84.4s1.73,2.13,2.36,3a8.59,8.59,0,0,1-1.88-1.06,18.63,18.63,0,0,1-2.72-2.85l.2-.25c.95-1.26,1.26-3.15,4.41-3.31s7.26-3.11,9.46-4.53a16.87,16.87,0,0,0,5-4.34,5.39,5.39,0,0,0,4,.57,15.78,15.78,0,0,1,3.15-1.07,2.33,2.33,0,0,0-.36.61c-.12.74-.69,1.44-.39,1.7s1.86-1.27,2.21-1.65.55-.74,1-.51.25,1.16.39,1.59.47,1,.68,1.58S92,76.17,92.67,76s-.86-3-1.09-3.61a2.61,2.61,0,0,1-.16-1.14h0a13.68,13.68,0,0,1,1.32.85c.3.26,1,1.68,1.34,2.07s.67.68.84.51-.06-.81-.34-1.37S93,70.66,93.16,70.44s.68-.24,1.23.14,2.42,1.25,2.42,1.25,1.41.44,1.43.06-.59-.95-1-1.29-2.6-1.27-2.76-1.45-.37-.5-.21-.67,1.86.12,2.19.05a4.86,4.86,0,0,1,.86-.13c.34,0,2,.35,2.2.1s-.74-.72-1.29-.9A17.48,17.48,0,0,0,95.67,67c-.29,0-.89,0-.8-.22A1.13,1.13,0,0,1,95.63,66.17Z"/><polygon points="65.25 0 65.25 0 65.25 0 65.25 0"/></symbol><symbol id="Acropora_spp." data-name="Acropora spp." viewBox="0 0 99.52 82.08"><g id="ian_symbols_874ac0bd37e014841593bf102519fd55" data-name="ian symbols 874ac0bd37e014841593bf102519fd55"><path d="M85.8,33.42c1.25-.4,8.86-1.93,8.72-2.4s-3.93-1.6-6.54-1.6"/><path d="M94.44,45.41c2.45-1.12,3.44-3,5-6.11-2.57-.15-8,4.91-9.53,5.35-11.78,3.54-16,4.67-19.41,4.67a68.69,68.69,0,0,0,8.91-7.42c5.5,1.12,9.89-.19,10.3-1.4-.17-.72-4.43-1.21-7.51-1.49C91.92,28.44,96.66,17.29,96.57,14.9c-1.94.75-6.89,8.38-8.19,10.72-.64-1.9-3-5.65-4.88-5.85C83.4,22,86.26,28.3,85.61,29S74.32,41.28,69.25,45.23l-.16.14c.06-3.67,1.22-16.55,1.79-16.85,4.75-2.46,9.49-5.25,9.79-9.5-5.38,3.13-8.6,4.79-10.09,4.78,0-.4,0-.88,0-1.41h0c.33-2.6,5.07-19.56,3.44-19.68A68.15,68.15,0,0,0,70.43,9c-.22-2.66-.86-6.88-2.66-9-2.3,1.83-1,15.83-2,28.67-.06.78-.11,3.94-.16,7.6-2.27-2-8-6.88-9.41-9.19a56,56,0,0,1-2.81-5.49c.8-1.93,3.1-6.7,2.36-7.27-1-.38-2.58,2.26-3.64,4.32-1.69-4.05-2.83-7.32-3.35-7.31-1.11.73.53,7.8,2.14,12.42-.61,0-3.34-1.94-5.36-3,.13-6,.23-10.77.08-10.93-1.17-1.21-3.28,7.37-3.57,8.78-.7,3.43-.54,8.13-.61,11.71-.87-1.17-3.81-4.59-6.73-8.12-1.5-1.81-3.73-4.71-6-4.81-.34,4.09,10.74,17.26,11.92,17.74,0,1,.16,3.07.4,5.5a35,35,0,0,1-5.34,4.78c-1.72-2.53-7.67-8.79-9-10.17,1.8-2.79,3.79-6,3.57-9.09-2.27,0-4.34,4.18-5.87,5.86-2.45-3.84-2.78-5.7-6.87-9.61-.18,3.15,1,6.31,2.13,9.12.93,2.41,14.16,17.12,22.78,26.73h-.09l-1,0h0A45.55,45.55,0,0,1,24.79,55c-8.64-14.19-11.18-28.23-12-28.6h0c-1.4.46-2,14.26,5.52,25-5.19-3.69-7.08-7.46-8-7.1S11.55,52.72,22,57.82a38.84,38.84,0,0,1-10.63,2.4C10,60.35.48,58.15,0,58.51c-.08,1,8.89,9.27,26.57,1.15a54.36,54.36,0,0,0,16.86,2.46c1.54,0,4.82,8,7,12.2.1,2.56.14,5.35,0,7.71a20.39,20.39,0,0,0,3.74-.16c0-2.8.25-12.29.49-15.07s11.83-12.3,12.6-13.39c10.88-.28,31.83-6.56,32.23-7.82C99.19,44.85,96.43,45.41,94.44,45.41ZM39.37,48.88a16.67,16.67,0,0,0,2.17-3.49c.23,2.05.47,4.14.71,6Zm26.07-.27c-4.83,4.25-12.67,11-13.79,10.85h0A52.79,52.79,0,0,1,47.43,56a108.17,108.17,0,0,1-2-14.37c-.21-4-.08-11.78.06-18.64A24.88,24.88,0,0,0,51,26.75h0L65.58,40.59C65.54,43.8,65.49,46.85,65.44,48.61Z"/></g></symbol><symbol id="New_Symbol_4" data-name="New Symbol 4" viewBox="0 0 37 48.48"><path d="M21.59,48.47c-1-.05-2-.08-3-.19s-1.79-.32-2.69-.47c-.33-.05-.68,0-1,0s-.53-.13-.54-.58c0-.76,0-1.53,0-2.29,0-.28,0-.42-.28-.51l-.52-.2c-.09,0-.24,0-.28-.09a.52.52,0,0,0-.47-.23.35.35,0,0,1-.35-.49,4,4,0,0,0,0-1.67,1.15,1.15,0,0,1,0-.6c.12-.26.06-.3-.18-.27,0,0-.09,0-.13-.05s.07-.07.11-.07c.3,0,.45-.17.57-.42s.24-.21.37-.31a2.92,2.92,0,0,1-.43-.16.38.38,0,0,1-.13-.21,1.9,1.9,0,0,0-.79-1.05,6.44,6.44,0,0,1-1.33-1.32,4.83,4.83,0,0,1-.94-1.45s0-.07,0-.09a2.87,2.87,0,0,1-.77-1.11c-.11-.19-.22-.29-.44-.24a.61.61,0,0,1-.25,0,.46.46,0,0,1-.13-.08s.06-.12.1-.14c.24-.09.2-.2.08-.38-.24-.37-.42-.78-.67-1.14a1.78,1.78,0,0,0-.6-.54c-.21-.11-.26-.17-.21-.41a.83.83,0,0,0-.2-.78c-.2-.21-.33-.5-.61-.65A.21.21,0,0,1,5.71,30c.12-.38-.16-.67-.24-1,0-.18-.08-.35.09-.46a.43.43,0,0,1,.52,0c.39.28.77.56,1.17.82a1.3,1.3,0,0,0,.46.19c.38.07.45.13.53.51a.5.5,0,0,0,.08.17c.49-.16.45.36.64.54a19.46,19.46,0,0,0,1.36,1.57,2.29,2.29,0,0,1,.52.75,2.43,2.43,0,0,0,1,1,8.25,8.25,0,0,1,.77.58,1,1,0,0,0,.59.24c.42,0,.6.2.6.56,0,.69.47,1,1,1.19a.79.79,0,0,1,.29.16,1.82,1.82,0,0,0,1,.68,4.22,4.22,0,0,1,.53.29c.08,0,.19,0,.29,0a.71.71,0,0,0-.07-.27c-.35-.45-.72-.89-1.07-1.34a20.84,20.84,0,0,1-2.26-3.44,1.12,1.12,0,0,1-.12-.33,8.56,8.56,0,0,0-1.15-2.59,2.16,2.16,0,0,0-1.45-1c-.52-.15-1-.38-1.53-.54-.86-.26-1.73-.48-2.59-.71l-.18-.07a2.4,2.4,0,0,0-.52-.19c-.45-.06-.89-.1-1.34-.18a1.85,1.85,0,0,0-1.21.24,2.1,2.1,0,0,1-1.07.28,9.13,9.13,0,0,0-1,.11l-.2,0c-.3,0-.74-.12-.71-.27A1,1,0,0,1,.69,27a13.08,13.08,0,0,0,1.26-1,.9.9,0,0,0,.14-.24c-.09,0-.52-.15-.53-.21-.06-.37-.33-.51-.63-.6a.5.5,0,0,1-.36-.39c-.06-.23,0-.44.26-.47a3.35,3.35,0,0,1,1.38,0,3.07,3.07,0,0,0,1.54.09c.17,0,.25,0,.39.15.43.4.56.35.57.34.3-.36.47,0,.68.12a.66.66,0,0,0,.4.06,1.46,1.46,0,0,1,.83.19c.15.08.38,0,.56.05.53.12,1.05.27,1.59.38a6.65,6.65,0,0,0,1,.1s.13-.16.12-.23-.12-.16-.17-.24c-.19-.28-.61-.33-.67-.73a.81.81,0,0,1-.63-.34c-.34-.4-.65-.82-1-1.23a4.16,4.16,0,0,0-.85-1,2.81,2.81,0,0,1-.7-.63.81.81,0,0,0-1.07-.65c-.15,0-.15-.17-.09-.31.16-.39.1-.5-.29-.61l-1.09-.28c-.08,0-.19-.07-.25,0-.62.33-1-.1-1.4-.45a1.12,1.12,0,0,0-.58-.32,5.19,5.19,0,0,1-.69-.18c-.46-.17-.55-.51-.28-.93a1.74,1.74,0,0,1,1-.62c.37.27.82.12,1.22.27a1.21,1.21,0,0,1,.4.22c.14.13.23.19.44.11s.33.09.5.12.3,0,.19-.24-.34-.58-.51-.88c0-.09-.31-.57-.41-.72s-.15-.14-.14-.19c.08-.36-.21-.58-.3-.88,0-.06-.06-.14,0-.19a1.16,1.16,0,0,0-.26-1.12s-.06-.1,0-.14c.26-.56-.16-1-.23-1.52a.63.63,0,0,1,0-.28.8.8,0,0,0-.21-.89c-.08-.08-.18-.27-.14-.32a.46.46,0,0,0,0-.59.66.66,0,0,1,0-.48c.2-.65.66-.89,1.2-.63a.44.44,0,0,1,.19.15q.25.43.48.87c.1.19.26.38,0,.6,0,0,0,.16.05.21a1.49,1.49,0,0,1,.37,1.37.39.39,0,0,0,0,.29c.2.25.41.48.3.86,0,.14.16.26.34.15s.14.24.1.27c-.23.24-.23.43.08.61A.25.25,0,0,1,4.8,14c-.14.21,0,.29.15.3s.38.16.31.43c0,.06,0,.16,0,.19.43.39.41,1,.71,1.45s.57,1,.87,1.42c.06.09.2.13.3.2.07-.12.23-.26.21-.36-.12-.55.23-1,.28-1.52A10.36,10.36,0,0,1,7.94,15c.11-.51.16-1,.27-1.54a3.3,3.3,0,0,1,.28-.81c.1-.21.33-.18.54-.17a.59.59,0,0,1,.58.41,1.53,1.53,0,0,1,.13.68.53.53,0,0,0,.27.55c.32.23.31.23.45-.15.08-.21.28-.39.31-.6.07-.5.47-.9.41-1.44a.5.5,0,0,1,.06-.25,3.22,3.22,0,0,0,.55-1.45.19.19,0,0,1,.07-.13c.28-.22.52-.44.24-.82a.05.05,0,0,1,0,0c.35-.24.27-.68.44-1,.32-.59.61-1.2.92-1.8a.65.65,0,0,1,.3-.32c.47-.14.51-.56.61-.91.05-.19.08-.43.26-.43a.75.75,0,0,1,.56.26,2.85,2.85,0,0,1,.26.76,1.85,1.85,0,0,0,.08.17c0-.06.12-.12.13-.18,0-.3.06-.6.08-.9A.41.41,0,0,1,16,4.52a3.7,3.7,0,0,0,.37-.26.38.38,0,0,1,.61.26c.14.62.3,1.24.43,1.86a.71.71,0,0,1,0,.35c-.06.2-.17.4.18.43a.32.32,0,0,1,0,.24.79.79,0,0,0,0,.82,6,6,0,0,1,.21.68.68.68,0,0,0,.2.34A4.17,4.17,0,0,1,19.6,10.8a.59.59,0,0,1,.11.23c0,.46.38.71.63,1a1.41,1.41,0,0,0,.13.12c0-.06.05-.14,0-.18-.11-.2.07-.37.06-.5,0-.41.2-.84-.06-1.23,0-.06-.12-.15-.11-.16.41-.44-.21-.76-.15-1.18,0-.15-.08-.31.06-.49S20.48,8,20.17,8c-.15,0-.15-.14-.09-.28s.28-.53-.14-.69c0,0,0-.16,0-.21.15-.23.17-.43,0-.57s-.2-.17-.06-.31a.21.21,0,0,0,0-.35c-.23-.12-.24-.21-.09-.42s.14-.41-.18-.54-.36-.24-.06-.44c.05,0,.1-.2.07-.22-.3-.27.17-.69-.1-.86-.45-.27-.55-.56-.31-1a2.41,2.41,0,0,0-.42-.62c-.41-.32-.3-.69-.18-1.06a.56.56,0,0,1,.79-.33,7.93,7.93,0,0,1,.77.47c.07,0,.13.12.21.14a.57.57,0,0,1,.46.68c0,.22.09.34.32.37s.33.2.24.45-.18.34,0,.53.16.34.37.11c0,0,.17,0,.22.09s.06.28,0,.42-.26.48,0,.72c0,0,0,.15,0,.23s.1.25.26.23.34,0,.14.23a.14.14,0,0,0,0,.1c0,.27-.56.37-.16.77.18.17.07.56.36.74,0,0,0,.19,0,.25s-.15.37,0,.43c.41.15.29.5.36.78a.73.73,0,0,1,0,.35c-.06.21-.1.39.23.34a.23.23,0,0,1,.14.05s.05.08,0,.09c-.25.27.25.51,0,.79a.62.62,0,0,0-.11.41,5.63,5.63,0,0,0,.19,1.13.93.93,0,0,0,.43.5c.19.09.17.16.1.3-.34.68-.32.75.23,1.24a.42.42,0,0,1,.07.29c0,.3-.07.59-.07.89s.09.25.31.2c.47-.11.5-.07.6.41,0,.07,0,.14,0,.2a.82.82,0,0,0,.05.14.63.63,0,0,0,.11-.09l.59-.75c.14-.18.33-.34.25-.63a.83.83,0,0,1,0-.35c.09-.45.31-.64.76-.61.26,0,.37.2.42.44s.06.27.12.29c.25.07.32.16.16.4s.26.73.34.71a.63.63,0,0,0,.36-.22.43.43,0,0,1,.49-.25c.05,0,.13,0,.15,0,.28-.36.74-.26,1.1-.44a6.15,6.15,0,0,1,2.08-.5c.12,0,.31.16.37.29a.72.72,0,0,1,0,.47.45.45,0,0,1-.25.25c-.37.13-.21.34-.11.56q.63,1.47,1.24,3c.19.47.37.94.54,1.42.08.22.11.45.17.67s0,.19.07.22c.23.14.09.28.09.46a3.92,3.92,0,0,0,.18,1s.21.05.24,0a4.14,4.14,0,0,0,.58-.74,1.26,1.26,0,0,1,1.27-.7.77.77,0,0,1,.52.88,5.23,5.23,0,0,1-.26.82c-.21.53-.44,1.06-.66,1.59-.12.28-.26.54-.38.82-.22.51-.44,1-.64,1.54s-.28.84-.43,1.25a7.27,7.27,0,0,1-.54,1.45,5.13,5.13,0,0,0-.28.85,4.72,4.72,0,0,1-.69,1.28,3.6,3.6,0,0,0-.55,1.06.65.65,0,0,1-.32.41c-.09,0-.14.19-.19.29a4.49,4.49,0,0,1-1,1.36c-.37.34-.65.78-1,1.15s-.76.73-1.14,1.08a13,13,0,0,1-1.1,1,25.52,25.52,0,0,1-2.18,1.64,6.1,6.1,0,0,0-1.12.93.51.51,0,0,0,.22.93,2.78,2.78,0,0,1,1.22.78,1.94,1.94,0,0,0,1.06.55,3.43,3.43,0,0,1,2,1.21,1.18,1.18,0,0,0,.49.35.89.89,0,0,1,.59.59c.24.67.49,1.34.7,2A1.09,1.09,0,0,1,30,47.07c-1,.22-2,.41-3.05.61-.47.1-.92.22-1.39.31s-1,.19-1.5.27c-.25,0-.51.06-.76.09l-1,.11C22.21,48.48,21.84,48.48,21.59,48.47ZM14.36,26.54c0,.09,0,.26.11.34a2,2,0,0,1,.44.83c.08.21.14.33.39.18s.35,0,.38.22.06.61.1.91c0,.1,0,.27.06.28.31.1.22.39.29.6a.79.79,0,0,0,.12.27c.28.31.84.44.61,1,0,0,0,0,0,0,.1.19.11.43.41.51s.18.41.26.62,0,.4.34.3a.41.41,0,0,1,.32.13,1.07,1.07,0,0,0,.44,1,2.09,2.09,0,0,1,.39.5,1.38,1.38,0,0,1,.15.28.79.79,0,0,0,.71.39c.18,0,.31-.32.28-.6a.3.3,0,0,0,0-.1c-.08-.16,0-.26.09-.4a1.19,1.19,0,0,0,.24-1.23c-.06-.13-.17-.38.06-.44s.24-.22.21-.41-.18-.69.19-1a.23.23,0,0,0-.08-.38c-.33-.14-.24-.3-.06-.5a3.32,3.32,0,0,0,.29-.34c0-.06.1-.17.08-.21-.2-.28-.06-.55,0-.83s.11-.4,0-.54,0-.26.13-.34.16-.2,0-.27-.23-.27-.07-.46.23-.28.2-.32c-.2-.27,0-.38.17-.53a.3.3,0,0,0,.08-.28c-.21-.42,0-.84,0-1.25a1,1,0,0,0-.42-.86c-.21-.12-.16-.21,0-.3.54-.22.45-.19.35-.72a.57.57,0,0,1,.06-.45,1.3,1.3,0,0,0-.33-1.25c-.28-.24-.28-.24,0-.45s.24-.29,0-.55a.42.42,0,0,1-.1-.21,1.16,1.16,0,0,0-.8-.9c-.37-.14-.06-.42-.24-.51s-.43.18-.48-.23-.27.07-.45,0-.1.12,0,.2a.45.45,0,0,1-.15.66c-.23.11-.3.29-.42.47a2.65,2.65,0,0,0-.46.82.43.43,0,0,1-.21.21.52.52,0,0,0-.29.38,1,1,0,0,1-.25.43,4.84,4.84,0,0,0-1.15,1.58.28.28,0,0,1-.13.15,1.45,1.45,0,0,0-.58.69c-.16.28-.43.46-.51.82a7.36,7.36,0,0,1-.57,1.16A4.76,4.76,0,0,0,14.36,26.54Zm14.81-1.47-.09,0c.07.19.14.37.2.56a11.08,11.08,0,0,1,.29,1.08c0,.26,0,.56.36.64.05,0,.11.13.11.21,0,.4.35.74.26,1.18,0,.07.1.21.19.25a.28.28,0,0,0,.26-.08c.13-.23,0-.58.39-.71a.59.59,0,0,0-.06-.22c-.15-.25,0-.37.19-.47.48-.22.49-.26.31-.74-.05-.14-.09-.29.11-.32s.3-.3.27-.46.26-.39,0-.6-.15-.32.11-.39.25-.2.09-.37l-.12-.1c-.17-.14-.23-.28.06-.34s.2-.08.2-.24,0-.55.06-.62c.43-.28-.19-.36-.07-.56a.32.32,0,0,0,0-.14,1.12,1.12,0,0,0,0-.34,5.35,5.35,0,0,0-.39-1c0-.06-.06-.16,0-.19.25-.26,0-.5,0-.76s-.08-.81-.16-1.21c-.11-.58-.21-1.17-.31-1.75a9.11,9.11,0,0,1-.24-1.07c0-.4-.4-.69-.29-1.11,0,0-.16-.07-.18-.05-.39.42-1,.54-1.41.88a1.47,1.47,0,0,0-.63.68.26.26,0,0,1-.29.21,1.94,1.94,0,0,0-1.69.95,1.79,1.79,0,0,1-.31.4,4.39,4.39,0,0,0-1,1.29c-.14.25-.34.46-.23.79,0,.07,0,.2-.12.26a.56.56,0,0,0-.18.64,1.07,1.07,0,0,1,0,.4,2.93,2.93,0,0,0-.08.43c0,.51.2,1-.1,1.53a.16.16,0,0,0,0,.14c.21.24.1.46,0,.7s0,.26,0,.39,0,.32,0,.47,0,.18,0,.25a3.39,3.39,0,0,1,.13,2.22.58.58,0,0,0,0,.35,1.26,1.26,0,0,1-.13,1.12,2.9,2.9,0,0,0-.16.68,3.43,3.43,0,0,1,0,.35c-.17.56,0,1.18-.31,1.72,0,.08,0,.22,0,.34a2.07,2.07,0,0,1-.08.4c0,.07-.11.13-.12.21s.05.15.08.23.12-.06.15-.11c.17-.29.34-.59.49-.89s.33-.79.55-1.16.4-.65.56-1c.08-.18.24-.37.22-.54-.05-.45.13-.88.07-1.33,0-.21.37-.55.59-.56s.37.16.45.47a3.69,3.69,0,0,1,.12.49c.05.41.1.82.12,1.23s.24,1-.25,1.34c0,0-.06.15,0,.17.2.21,0,.33-.1.49l-.36.72-.44.92c-.05.11-.13.2-.17.31s0,.25.17.28.31,0,.38-.15a.76.76,0,0,1,.52-.49A2,2,0,0,0,27.7,33c.09-.07.25-.19.23-.25-.16-.52.39-.56.56-.85,0-.05.12-.07.16-.13s.09-.18.06-.22a4.46,4.46,0,0,1-.48-1.33,4,4,0,0,1-.45-2.15s0-.07,0-.1c0-.66-.42-1.24-.32-1.92,0-.07-.06-.15-.08-.24a2.07,2.07,0,0,1-.09-.38,13.34,13.34,0,0,0-.35-2.9,4.72,4.72,0,0,1,0-1.31,12.23,12.23,0,0,0,0-1.42A1.14,1.14,0,0,1,27,19a.32.32,0,0,1,.55-.07.93.93,0,0,1,.25.37,4.8,4.8,0,0,1,.37,1.41,17,17,0,0,0,.38,2.24c0,.18.2.34.19.51a3.18,3.18,0,0,0,.24,1A6.15,6.15,0,0,1,29.17,25.07Zm-16.48-4.2s0,1,.09,1.57a.73.73,0,0,0,.1.28c.07.13.15.16.26,0a4.32,4.32,0,0,1,.47-.57c.3-.3.66-.55.67-1,0,0,.06-.07.1-.11.24-.26.48-.51.71-.77a.4.4,0,0,0,.09-.27c0-.36.18-.57.39-.79s.26-.26.28-.4.14-.31.33-.39.46-.17.35-.5c0,0,.1-.13.18-.18a2,2,0,0,0,.37-.21c.29-.3.56-.61.82-.94a2.69,2.69,0,0,0,.48-.7c.16-.43.12-.44.57-.43h.26c.26,0,.3-.18.36-.35a.27.27,0,0,0-.22-.39.35.35,0,0,1-.31-.34c0-.1-.12-.19-.2-.27s-.21-.13-.27-.22c-.16-.25-.29-.52-.46-.77s-.48-.4-.36-.78c0,0-.06-.08-.09-.11a.73.73,0,0,1-.39-.62s-.12-.12-.19-.13c-.25,0-.32-.15-.27-.38,0-.08,0-.21,0-.24-.39-.26-.41-.73-.64-1.08A1,1,0,0,1,16,8.94a1.59,1.59,0,0,0-.06-.9c-.1-.39-.18-.79-.27-1.19a1.84,1.84,0,0,0-.11-.44c-.29,0-.16.27-.21.43s-.09.14-.12.22-.13.42-.18.63-.05.43-.12.64c-.16.49-.35,1-.53,1.46-.1.25-.36.54-.3.71.13.35,0,.48-.23.66-.05,0,0,.19,0,.28,0,.41-.26.78-.15,1.2a5.93,5.93,0,0,0-.44.85A2.68,2.68,0,0,0,13,14.93a1,1,0,0,1-.08.77.73.73,0,0,0,0,.93.53.53,0,0,1,0,.62A3.14,3.14,0,0,0,12.43,19a2.05,2.05,0,0,0,.18.66,1.2,1.2,0,0,1,.08.28C12.69,20.27,12.69,20.57,12.69,20.87Zm-3.58-.95c0,.25,0,.44.28.45,0,0,.06.12.08.18a2.27,2.27,0,0,0,0,.28c0,.13.13.27.29.18s.08-.2.07-.3a3.65,3.65,0,0,1-.09-1.35.51.51,0,0,0,0-.24c-.09-.32-.18-.63-.26-.95,0,0,0-.16.07-.16.39-.06.24-.21.08-.39a.29.29,0,0,1,0-.19c0-.27,0-.53,0-.8,0-.11-.1-.21-.16-.32,0,.09,0,.17,0,.26s0,.16-.05.25a3.65,3.65,0,0,0-.12,1.49c.09.38-.16.75,0,1.13C9.32,19.57,9.17,19.77,9.11,19.93Zm6.36,23.15,0,.14.17-.09.78-.47a5.71,5.71,0,0,0,.54-.37.25.25,0,0,0,.06-.21.52.52,0,0,0-.59-.3A1.64,1.64,0,0,0,15.47,43.07Z"/></symbol><symbol id="Brain_coral_Faviidae_3" data-name="Brain coral (Faviidae) 3" viewBox="0 0 99.75 78.98"><g id="ian_symbols_bbbccbf8f6c0c4d479d03c096fad3aa2" data-name="ian symbols bbbccbf8f6c0c4d479d03c096fad3aa2"><path class="cls-1" d="M99.75,45.65C83.08,50.35,72.18,51.42,58.93,58,45.69,64.88,30.09,71.5,14.7,79c0,0-3.42-3.85-7-7.69C-1.11,61.67-10.3,24.07,29,5c41.46-17.73,65,15,70.73,40.6Z"/><path class="cls-2" d="M13.85,19.6c3.63-1.92,6.62,4.92,6.62,6.2.21,1.28-.64,1.71-1.5.86a2.44,2.44,0,0,0-3.63.85c-.64,1.71.86,2.56,2.78,3.2,2.14.86,1.71-.64,2.14,2.14.64,2.78-4.06.86-5.13-.21C13.85,31.57,13,32,11.07,32c-2.14.21-2.14,1.5-3,3.21-2.56,4.7-.85,6.41.64,11.11,1.07,3,2.35,2.78,1.92,6.41-.22,3.63,2.78,5.77,4.49,7.26,1.92,1.49,4.92,1.71,6.41,2.14,1.71.21,1.5-2.78,1.28-4.7-.21-1.71.64-1.5,1.92-1.92,1.28-.21,1.5,1.28,2.13,2.35s2.78.43,3.21-.43c.64-1.07-.43-3-1.07-3.84-.64-1.07-1.07-1.5-4.06-1.71-2.78,0-4.92.43-5.77,2.35-.64,1.71-3.42,2.35-4.06.22s.43-3.42.85-4.7c.43-1.07,2.57-1.71,4.27-1.71,1.5,0,4.06.86,4.92,0,.64-.85,0-2.56-2.14-4.06a3.92,3.92,0,0,0-5.56,1.28,2.28,2.28,0,0,1-4.05-.64c-.86-1.92-1.5-1.29,0-3.85s5.34-1.92,9.4-1.07c4.06.64,5.34,2.35,6.41,4.06,1.06,1.5,2.13,4.27,1.28,6.41s3.42,2.56,3.64.85.64-1.92,0-3c-.43-1.28.43-2.56,1.28-2.56.85.21,1.28,1.5,1.71,3s0,1.92,1.29,2.35c1.49.64,3.2-1.07,3.42-1.92s1.28-.43-1.07-1.28c-2.13-.86-2.13-5.13-1.49-6.2S41,40.33,42.48,41s1.28.64,2.78,4.06,5.55-1.71,5.34-3C50.39,41,48,38.62,47,38.2a13.33,13.33,0,0,0-6.63-.64c-4.7.43-3.2-.22-5.34,3.2s-3.63-3.42-2.78-4.48c.86-.86,1.07-2.56-2.35-3s-2.78,1.28-4.7,2.14c-1.92.64-1.5-1.28-2.35-3.42C22,30.08,25,30.08,28.16,29.65c3.2-.21,7.05,1.92,11.32,4.49,4.28,2.35,2.14-3,1.5-4.28-.64-1.07-3.63-3.42-5.13-4.49-1.28-1.07-4.06-1.92-7.48-2.56-3.21-.64-4.92-1.28-7.7-.64-3,.43-.21-4.06,3.21-4.06s7.27,1.5,8.76,3,4.49,1.92,6,0c1.49-1.71-4.27-5.34-5.35-5.77-1.28-.42-2.56-1.5-4.49-.85-1.92.85-3.42-.21-3.63-1.5-.21-1.07,1.71-2.14,4.92-3.21,3-1.07,7.9,3.21,9.82,5.55s1.71,7.27,2.78,7.27c.86,0,1.28-2.78.64-4.49s-.64-3.2.86-3.42c1.71,0,1.92,1.28,3,1.92s.85,3.84-.64,4.06c-1.5,0-1.5,1.71-1.28,3.42s2.13,4.91,2.35,5.77a4.87,4.87,0,0,0,2.57,3.64c1.71,1.07,3.84.64,6.2,1.71s1.92,3.42,1.92,4.06c-.21.64-1.5,1.07-4.27-.22-2.78-1.06-2.35,1.29-1.92,2.57.21,1.28,3.42,1.93,5.13,1.93a5.9,5.9,0,0,0,4.7-4.06c.86-2.35-.22-3.85,1.07-3.42a5.81,5.81,0,0,1,3.63,1.71c.64.85,3.63.21,4.27-1.07.65-1.49-2.56-4.28-4.7-4.28-1.92,0-5.34-1.71-8.55-2.35-3.2-.43-3,1.07-5.13,1.49-2.13.22-1.5-1.92-1.28-3.2,0-1.28,2.77.21,3-.64.43-.86-2.77-2.35-4.27-3-1.71-.86-1.92-.43-1.71-1.92,0-1.5,2.56-1.71,3.85-.21a66.91,66.91,0,0,0,5.34,4.27c1.92,1.28,5.13,1.07,4.7-.64-.22-1.71-3.85-1.71-4.92-2.35-1.28-.43-4.7-4.92-6-6.84-1.5-1.92-6.41-4.91-9.83-5.55s-3.63-2.56-3-3.63c.43-1.28,3.84,0,6.2.65,2.35.85,5.13,4.27,6.2,5.13,1.29.64,1.93,0,.85-2.78-.85-2.78-3.84-2.78-6-3-1.92-.21-2.57-1.5-.42-2.77C47.39,4,52.1,5.72,53,6.35s3.2,2.78,3.42,4.92c.21,1.92,1.07,2.14,3,2.56,1.71.22,1.28.22,1.07-2.13,0-2.35-1.92-3.85-2.35-5.13s2.14-.22,3.63.85c1.71,1.07,1.71,2.78,2.57,4.7C65.34,14,63,15.54,61.49,16s-.85,3,.21,4.92,4.92,3.2,7.91,4.06c2.78,1.07,2.78,3.85,3.63,5.34.64,1.5,1.92,1.07,2.57.21s-1.07-2.57-1.07-4.06c0-1.71.85-.85,2.56.86,1.7,1.92,1.92,4.27,2.56,6.41.42,2.35,2.14,3,3.42,3.42,1.5.64,2.14-1.07,2.14-1.07a19.93,19.93,0,0,0-5.13-9.83c-4.48-4.92-8.76-3-13-4.06s-3.42-4.27-2.36-4.91c.85-.64,4.92.64,6,1.71.86.85,3,2.14,3.85,1.28.64-.64-2.35-3-3.21-4.06-1.07-.86-3.85-2.35-4.7-3.21s.43-1.92,2.78-1.71A7.24,7.24,0,0,1,73.89,13a9.31,9.31,0,0,1,2.78,4.27c.43,1.07,1.28,3.42,2.14,3.21.85-.64-.43-3,.21-4.92s2.14.43,2.57,1.71.64,4.49.86,5.35c0,.85,1.92,3,4.27,4.7A15.9,15.9,0,0,1,90.56,32c.43,1.07,2.56,6.19,2.56,6.19-2.78,1.5-6.62,4.7-9.83,3.21-3-1.5-3.63-4.28-5.77-3.63C75.6,38.41,76,41.19,73,42c-3,1.07-6.2-1.7-6.2.86.21,2.56.85,2.13,3.85,2.35s4.7,5.35-1.5,3.85c-6-1.5-6.62-3.42-9.19-2.78-2.35.64-1.07.43-.85,4.06,0,3.42-4.06,7.05-5.77,5.56-1.92-1.28-5.34-3.84-1.71-4.49,3.42-.43,3.85-.22,2.78-2.14s-4.28-3-5.35-.85c-.85,1.92-.43,5.34-3.63,5.56s-3.63-1.5-6,.21-.21,4.27,1.92,3.63S50,62.34,46.75,64c-1.49.64-6-2.35-7.48-1.5-1.92,1.07-.43,6-2.14,6.2-3,.43-3.42-10-4.49-9.61-1.07.64-3.63-.21-4.06,1.92-.65,1.93,1.06,2.78-1.5,6.2s-6.84,3.42-4.49,0c2.14-3.42-4.49-5.77-2.78-1.07,1.92,4.91.43,5.13-.86,7.05-1.5,1.92-7.48.85-8.12-1.07-.43-2.14,2.35-4.49,4.06-3.64,1.7.64,3-1.71.63-2.78S10,64.48,7.22,61.48C4.44,58.71,1.88,55.07,4,54.86c2.35-.42,3.42-.85,1.92-3.63A24.19,24.19,0,0,1,3.8,43.11c-.22-2.35,1.07-11.54,2.56-12.4,1.28-.64,2.56,0,3.21-1.71.86-1.69.44-7.67,4.28-9.38Z"/></g></symbol></defs><title>Corals_SVG_Export_Two_Layers</title><g id="soft-coral"><use width="99.94" height="100" transform="matrix(-0.27, 0, 0, 0.27, 301.62, 114.94)" xlink:href="#Soft_coral"/><use width="99.94" height="100" transform="matrix(-0.27, 0, 0, 0.27, 291.63, 50.76)" xlink:href="#Soft_coral"/><use width="99.94" height="100" transform="matrix(-0.27, 0, 0, 0.27, 299.92, 87.51)" xlink:href="#Soft_coral"/><use width="99.94" height="100" transform="matrix(-0.27, 0, 0, 0.27, 330.63, 97.76)" xlink:href="#Soft_coral"/><use width="99.94" height="100" transform="matrix(-0.27, 0, 0, 0.27, 353.75, 84.81)" xlink:href="#Soft_coral"/><use width="99.94" height="100" transform="matrix(-0.27, 0, 0, 0.27, 331.62, 26.94)" xlink:href="#Soft_coral"/><use width="99.94" height="100" transform="matrix(-0.27, 0, 0, 0.27, 324.47, 60.63)" xlink:href="#Soft_coral"/></g><g id="hard-coral"><use width="99.51" height="82.08" transform="translate(434.41 53.05) scale(0.42)" xlink:href="#Acropora_spp."/><use width="99.51" height="82.08" transform="translate(506.21 95.27) scale(0.39)" xlink:href="#Acropora_spp."/><use width="99.51" height="82.08" transform="matrix(-0.39, 0, 0, 0.39, 550.66, 63.14)" xlink:href="#Acropora_spp."/><use width="99.51" height="82.08" transform="matrix(-0.39, 0, 0, 0.39, 504.07, 82.34)" xlink:href="#Acropora_spp."/><use width="99.51" height="82.08" transform="translate(476.04 41.17) scale(0.39)" xlink:href="#Acropora_spp."/><use width="99.51" height="82.08" transform="matrix(-0.39, 0, 0, 0.39, 461.7, 89.14)" xlink:href="#Acropora_spp."/><use width="37" height="48.48" transform="translate(468.94 0)" xlink:href="#New_Symbol_4"/><use width="37" height="48.48" transform="translate(426.44 3.75)" xlink:href="#New_Symbol_4"/><use width="37" height="48.48" transform="translate(397.69 33.63)" xlink:href="#New_Symbol_4"/><use width="99.75" height="78.98" transform="translate(55.16 59.06) rotate(46.5) scale(0.33)" xlink:href="#Brain_coral_Faviidae_3"/><use width="99.75" height="78.98" transform="matrix(-0.13, 0.31, 0.31, 0.13, 7.98, 63.86)" xlink:href="#Brain_coral_Faviidae_3"/></g></svg>